{"title":"The 100 S03 720p BluRay HEVC 2CH x265 [720P][HEVC]","uid":15422414,"size":5291819227,"categoryP":"video","categoryS":"hd___tv_shows","magnet":"?xt=urn:btih:5bf81bd2adc7cd90d96196c121094dbe84efd186&amp;dn=The+100+S03+720p+BluRay+HEVC+2CH+x265+%5B720P%5D%5BHEVC%5D&amp;tr=udp%3A%2F%2Ftracker.leechers-paradise.org%3A6969&amp;tr=udp%3A%2F%2Fzer0day.ch%3A1337&amp;tr=udp%3A%2F%2Fopen.demonii.com%3A1337&amp;tr=udp%3A%2F%2Ftracker.coppersurfer.tk%3A6969&amp;tr=udp%3A%2F%2Fexodus.desync.com%3A6969","seeders":11,"leechers":4,"uploader":"nayhtut","files":16,"time":1469651664,"description":"[Screenshots]\r\n\r\n \nhttps://s31.postimg.org/zbogyr9uj/The_100_S03_E14_720p_Blu_Ray_HEVC_2_CH_x265_001.jpg \nhttps://s31.postimg.org/x8e1r3a1n/The_100_S03_E14_720p_Blu_Ray_HEVC_2_CH_x265_002.jpg \nhttps://s31.postimg.org/6bu2irr8b/The_100_S03_E16_720p_Blu_Ray_HEVC_2_CH_x265_005.jpg \nhttps://s31.postimg.org/eim2achaz/The_100_S03_E15_720p_Blu_Ray_HEVC_2_CH_x265_006.jpg \nhttps://s31.postimg.org/3x6sc30d7/The_100_S03_E13_720p_Blu_Ray_HEVC_2_CH_x265_008.jpg \nhttps://s31.postimg.org/kyzme6f8b/The_100_S03_E07_720p_Blu_Ray_HEVC_2_CH_x265_007.jpg \nhttps://s31.postimg.org/jxzdp1y8r/The_100_S03_E07_720p_Blu_Ray_HEVC_2_CH_x265_002.jpg \nhttps://s31.postimg.org/qcyelq4yj/The_100_S03_E03_720p_Blu_Ray_HEVC_2_CH_x265_004.jpg \nhttps://s31.postimg.org/afzmp0ckb/The_100_S03_E01_720p_Blu_Ray_HEVC_2_CH_x265_009.jpg\r\n\r\n\r\n\r\nSource:  The 100 S03 720p BluRay x264-SHORTBREHD (Size: 35.76 GB)\r\n\r\nContains:  The 100 Season Three - Episode 01 to 16\r\n\r\n\r\nFormat                                   : Matroska\r\nFormat version                           : Version 4 / Version 2\r\nFile size                                : 4.92 GiB\r\nDuration                                 : Various\r\nOverall bit rate                         : 1 055 Kbps\r\nWriting application                      : Lavf57.25.100\r\nWriting library                          : Lavf57.25.100\r\n\r\nVideo\r\n\r\nID                                       : 1\r\nFormat                                   : V_MPEGH/ISO/HEVC\r\nCodec ID                                 : V_MPEGH/ISO/HEVC\r\nDuration                                 : 42mn 31s\r\nBit rate                                 : 842 Kbps\r\nWidth                                    : 1 280 pixels\r\nHeight                                   : 720 pixels\r\nDisplay aspect ratio                     : 16:9\r\nFrame rate                               : 25.000 fps\r\nBits/(Pixel*Frame)                       : 0.037\r\nStream size                              : 256 MiB (80%)\r\nWriting library                          : Lavc57.48.101 libx265\r\nDefault                                  : Yes\r\nForced                                   : No\r\nDURATION                                 : 00:42:31.251000000\r\nNUMBER_OF_FRAMES                         : 61168\r\nNUMBER_OF_BYTES                          : 1861807144\r\n_STATISTICS_WRITING_APP                  : no_variable_data\r\n_STATISTICS_WRITING_DATE_UTC             : 1970-01-01 00:00:00\r\n_STATISTICS_TAGS                         : BPS DURATION NUMBER_OF_FRAMES NUMBER_OF_BYTES\r\n\r\nAudio\r\n\r\nID                                       : 2\r\nFormat                                   : AC-3\r\nFormat/Info                              : Audio Coding 3\r\nMode extension                           : CM (complete main)\r\nFormat settings, Endianness              : Big\r\nCodec ID                                 : A_AC3\r\nDuration                                 : 42mn 31s\r\nBit rate mode                            : Constant\r\nBit rate                                 : 192 Kbps\r\nChannel(s)                               : 2 channels\r\nChannel positions                        : Front: L R\r\nSampling rate                            : 48.0 KHz\r\nBit depth                                : 16 bits\r\nCompression mode                         : Lossy\r\nStream size                              : 58.4 MiB (18%)\r\nWriting library                          : Lavc57.24.102 ac3\r\nLanguage                                 : English\r\nDefault                                  : Yes\r\nForced                                   : No\r\nDURATION                                 : 00:42:31.295000000\r\nNUMBER_OF_FRAMES                         : 239179\r\nNUMBER_OF_BYTES                          : 481228148\r\n_STATISTICS_WRITING_APP                  : no_variable_data\r\n_STATISTICS_WRITING_DATE_UTC             : 1970-01-01 00:00:00\r\n_STATISTICS_TAGS                         : BPS DURATION NUMBER_OF_FRAMES NUMBER_OF_BYTES\r\n\r\nText\r\n\r\nID                                       : 3\r\nFormat                                   : ASS\r\nCodec ID                                 : S_TEXT/ASS\r\nCodec ID/Info                            : Advanced Sub Station Alpha\r\nCompression mode                         : Lossless\r\nWriting library                          : Lavc57.48.101 ssa\r\nLanguage                                 : English\r\nDefault                                  : No\r\nForced                                   : No\r\nDURATION                                 : 00:41:57.442000000\r\nNUMBER_OF_FRAMES                         : 571\r\nNUMBER_OF_BYTES                          : 15182\r\n_STATISTICS_WRITING_APP                  : no_variable_data\r\n_STATISTICS_WRITING_DATE_UTC             : 1970-01-01 00:00:00\r\n_STATISTICS_TAGS                         : BPS DURATION NUMBER_OF_FRAMES NUMBER_OF_BYTES\r\n\r\nMenu\r\n\r\n00:00:00.000                             : :00:00:00.000\r\n00:06:11.079                             : :00:06:11.079\r\n00:15:49.782                             : :00:15:49.782\r\n00:22:18.796                             : :00:22:18.796\r\n00:26:36.428                             : :00:26:36.428\r\n00:31:52.911                             : :00:31:52.911\r\n00:36:27.060                             : :00:36:27.060\r\n00:42:02.979                             : :00:42:02.979\r\n\r\n\r\n__--__--__--__--__--__--__--__--__--__--__--__--__--\r\n\r\n\r\nIMDb: http://www.imdb.com/title/tt2661044\r\n\r\n\r\n__--__--__--__--__--__--__--__--__--__--__--__--__--\r\n\r\n\r\nAfter adding torrent with maget link,\r\n\r\nplease add this  following trackers list to the torrent for better seeds.\r\n\r\n\r\nudp://tracker.coppersurfer.tk:6969/announce\r\n\r\nudp://tracker.opentrackr.org:1337/announce\r\n \nhttp://tracker.baravik.org:6970/announce\r\n \nhttp://tracker2.wasabii.com.tw:6969/announce\r\n\r\nudp://9.rarbg.me:2710/announce\r\n\r\n\r\n__--__--__--__--__--__--__--__--__--__--__--__--__--\r\n\r\n\r\nEnjoy!","torrent":{"xt":"urn:btih:5bf81bd2adc7cd90d96196c121094dbe84efd186","amp;dn":"The+100+S03+720p+BluRay+HEVC+2CH+x265+%5B720P%5D%5BHEVC%5D","amp;tr":["udp%3A%2F%2Ftracker.leechers-paradise.org%3A6969","udp%3A%2F%2Fzer0day.ch%3A1337","udp%3A%2F%2Fopen.demonii.com%3A1337","udp%3A%2F%2Ftracker.coppersurfer.tk%3A6969","udp%3A%2F%2Fexodus.desync.com%3A6969"],"infoHash":"5bf81bd2adc7cd90d96196c121094dbe84efd186","infoHashBuffer":{"type":"Buffer","data":[91,248,27,210,173,199,205,144,217,97,150,193,33,9,77,190,132,239,209,134]},"announce":[],"urlList":[]}}